g patchy-particle
v 0.300908 0.399318 -0.05
v 0.300908 0.399318 0.05
v 0.317804 0.386006 0.05
v 0.317804 0.386006 -0.05
v 0.334113 0.37198 0.05
v 0.334113 0.37198 -0.05
v 0.349803 0.357265 0.05
v 0.349803 0.357265 -0.05
v 0.364845 0.341889 0.05
v 0.364845 0.341889 -0.05
v 0.379213 0.32588 0.05
v 0.379213 0.32588 -0.05
v 0.392878 0.309268 0.05
v 0.392878 0.309268 -0.05
v 0.405817 0.292084 0.05
v 0.405817 0.292084 -0.05
v 0.418004 0.274359 0.05
v 0.418004 0.274359 -0.05
v 0.429418 0.256126 0.05
v 0.429418 0.256126 -0.05
v 0.440036 0.237419 0.05
v 0.440036 0.237419 -0.05
v 0.449841 0.218273 0.05
v 0.449841 0.218273 -0.05
v 0.458813 0.198723 0.05
v 0.458813 0.198723 -0.05
v 0.466936 0.178805 0.05
v 0.466936 0.178805 -0.05
v 0.474194 0.158556 0.05
v 0.474194 0.158556 -0.05
v 0.480575 0.138014 0.05
v 0.480575 0.138014 -0.05
v 0.486066 0.117216 0.05
v 0.486066 0.117216 -0.05
v 0.490658 0.0962012 0.05
v 0.490658 0.0962012 -0.05
v 0.494342 0.0750085 0.05
v 0.494342 0.0750085 -0.05
v 0.49711 0.0536769 0.05
v 0.49711 0.0536769 -0.05
v 0.498959 0.0322459 0.05
v 0.498959 0.0322459 -0.05
v 0.499884 0.0107553 0.05
v 0.499884 0.0107553 -0.05
v 0.499884 -0.0107553 0.05
v 0.499884 -0.0107553 -0.05
v 0.498959 -0.0322459 0.05
v 0.498959 -0.0322459 -0.05
v 0.49711 -0.0536769 0.05
v 0.49711 -0.0536769 -0.05
v 0.494342 -0.0750085 0.05
v 0.494342 -0.0750085 -0.05
v 0.490658 -0.0962012 0.05
v 0.490658 -0.0962012 -0.05
v 0.486066 -0.117216 0.05
v 0.486066 -0.117216 -0.05
v 0.480575 -0.138014 0.05
v 0.480575 -0.138014 -0.05
v 0.474194 -0.158556 0.05
v 0.474194 -0.158556 -0.05
v 0.466936 -0.178805 0.05
v 0.466936 -0.178805 -0.05
v 0.458813 -0.198723 0.05
v 0.458813 -0.198723 -0.05
v 0.449841 -0.218273 0.05
v 0.449841 -0.218273 -0.05
v 0.440036 -0.237419 0.05
v 0.440036 -0.237419 -0.05
v 0.429418 -0.256126 0.05
v 0.429418 -0.256126 -0.05
v 0.418004 -0.274359 0.05
v 0.418004 -0.274359 -0.05
v 0.405817 -0.292084 0.05
v 0.405817 -0.292084 -0.05
v 0.392878 -0.309268 0.05
v 0.392878 -0.309268 -0.05
v 0.379213 -0.32588 0.05
v 0.379213 -0.32588 -0.05
v 0.364845 -0.341889 0.05
v 0.364845 -0.341889 -0.05
v 0.349803 -0.357265 0.05
v 0.349803 -0.357265 -0.05
v 0.334113 -0.37198 0.05
v 0.334113 -0.37198 -0.05
v 0.317804 -0.386006 0.05
v 0.317804 -0.386006 -0.05
v 0.300908 -0.399318 0.05
v 0.300908 -0.399318 -0.05
v 0.337016 0.447236 -0.05
v 0.337016 0.447236 0.05
v -0.337016 0.447236 -0.05
v -0.337016 0.447236 0.05
v -0.318696 0.46047 0.05
v -0.318696 0.46047 -0.05
v -0.299857 0.472955 0.05
v -0.299857 0.472955 -0.05
v -0.280529 0.484669 0.05
v -0.280529 0.484669 -0.05
v -0.260744 0.495593 0.05
v -0.260744 0.495593 -0.05
v -0.240535 0.50571 0.05
v -0.240535 0.50571 -0.05
v -0.219934 0.515004 0.05
v -0.219934 0.515004 -0.05
v -0.198974 0.523459 0.05
v -0.198974 0.523459 -0.05
v -0.177691 0.531061 0.05
v -0.177691 0.531061 -0.05
v -0.156118 0.537799 0.05
v -0.156118 0.537799 -0.05
v -0.134291 0.54366 0.05
v -0.134291 0.54366 -0.05
v -0.112245 0.548636 0.05
v -0.112245 0.548636 -0.05
v -0.0900158 0.552718 0.05
v -0.0900158 0.552718 -0.05
v -0.0676405 0.5559 0.05
v -0.0676405 0.5559 -0.05
v -0.045155 0.558177 0.05
v -0.045155 0.558177 -0.05
v -0.0225959 0.559544 0.05
v -0.0225959 0.559544 -0.05
v 1.86644e-16 0.56 0.05
v 1.86644e-16 0.56 -0.05
v 0.0225959 0.559544 0.05
v 0.0225959 0.559544 -0.05
v 0.045155 0.558177 0.05
v 0.045155 0.558177 -0.05
v 0.0676405 0.5559 0.05
v 0.0676405 0.5559 -0.05
v 0.0900158 0.552718 0.05
v 0.0900158 0.552718 -0.05
v 0.112245 0.548636 0.05
v 0.112245 0.548636 -0.05
v 0.134291 0.54366 0.05
v 0.134291 0.54366 -0.05
v 0.156118 0.537799 0.05
v 0.156118 0.537799 -0.05
v 0.177691 0.531061 0.05
v 0.177691 0.531061 -0.05
v 0.198974 0.523459 0.05
v 0.198974 0.523459 -0.05
v 0.219934 0.515004 0.05
v 0.219934 0.515004 -0.05
v 0.240535 0.50571 0.05
v 0.240535 0.50571 -0.05
v 0.260744 0.495593 0.05
v 0.260744 0.495593 -0.05
v 0.280529 0.484669 0.05
v 0.280529 0.484669 -0.05
v 0.299857 0.472955 0.05
v 0.299857 0.472955 -0.05
v 0.318696 0.46047 0.05
v 0.318696 0.46047 -0.05
v -0.300908 0.399318 -0.05
v -0.300908 0.399318 0.05
v -0.300908 -0.399318 -0.05
v -0.300908 -0.399318 0.05
v -0.317804 -0.386006 0.05
v -0.317804 -0.386006 -0.05
v -0.334113 -0.37198 0.05
v -0.334113 -0.37198 -0.05
v -0.349803 -0.357265 0.05
v -0.349803 -0.357265 -0.05
v -0.364845 -0.341889 0.05
v -0.364845 -0.341889 -0.05
v -0.379213 -0.32588 0.05
v -0.379213 -0.32588 -0.05
v -0.392878 -0.309268 0.05
v -0.392878 -0.309268 -0.05
v -0.405817 -0.292084 0.05
v -0.405817 -0.292084 -0.05
v -0.418004 -0.274359 0.05
v -0.418004 -0.274359 -0.05
v -0.429418 -0.256126 0.05
v -0.429418 -0.256126 -0.05
v -0.440036 -0.237419 0.05
v -0.440036 -0.237419 -0.05
v -0.449841 -0.218273 0.05
v -0.449841 -0.218273 -0.05
v -0.458813 -0.198723 0.05
v -0.458813 -0.198723 -0.05
v -0.466936 -0.178805 0.05
v -0.466936 -0.178805 -0.05
v -0.474194 -0.158556 0.05
v -0.474194 -0.158556 -0.05
v -0.480575 -0.138014 0.05
v -0.480575 -0.138014 -0.05
v -0.486066 -0.117216 0.05
v -0.486066 -0.117216 -0.05
v -0.490658 -0.0962012 0.05
v -0.490658 -0.0962012 -0.05
v -0.494342 -0.0750085 0.05
v -0.494342 -0.0750085 -0.05
v -0.49711 -0.0536769 0.05
v -0.49711 -0.0536769 -0.05
v -0.498959 -0.0322459 0.05
v -0.498959 -0.0322459 -0.05
v -0.499884 -0.0107553 0.05
v -0.499884 -0.0107553 -0.05
v -0.499884 0.0107553 0.05
v -0.499884 0.0107553 -0.05
v -0.498959 0.0322459 0.05
v -0.498959 0.0322459 -0.05
v -0.49711 0.0536769 0.05
v -0.49711 0.0536769 -0.05
v -0.494342 0.0750085 0.05
v -0.494342 0.0750085 -0.05
v -0.490658 0.0962012 0.05
v -0.490658 0.0962012 -0.05
v -0.486066 0.117216 0.05
v -0.486066 0.117216 -0.05
v -0.480575 0.138014 0.05
v -0.480575 0.138014 -0.05
v -0.474194 0.158556 0.05
v -0.474194 0.158556 -0.05
v -0.466936 0.178805 0.05
v -0.466936 0.178805 -0.05
v -0.458813 0.198723 0.05
v -0.458813 0.198723 -0.05
v -0.449841 0.218273 0.05
v -0.449841 0.218273 -0.05
v -0.440036 0.237419 0.05
v -0.440036 0.237419 -0.05
v -0.429418 0.256126 0.05
v -0.429418 0.256126 -0.05
v -0.418004 0.274359 0.05
v -0.418004 0.274359 -0.05
v -0.405817 0.292084 0.05
v -0.405817 0.292084 -0.05
v -0.392878 0.309268 0.05
v -0.392878 0.309268 -0.05
v -0.379213 0.32588 0.05
v -0.379213 0.32588 -0.05
v -0.364845 0.341889 0.05
v -0.364845 0.341889 -0.05
v -0.349803 0.357265 0.05
v -0.349803 0.357265 -0.05
v -0.334113 0.37198 0.05
v -0.334113 0.37198 -0.05
v -0.317804 0.386006 0.05
v -0.317804 0.386006 -0.05
v 0.0676405 -0.5559 0.05
v 0.0900158 -0.552718 0.05
v -0.045155 -0.558177 0.05
v -0.0225959 -0.559544 0.05
v 0.112245 -0.548636 0.05
v 1.30626e-16 -0.56 0.05
v 0.0225959 -0.559544 0.05
v -0.0676405 -0.5559 0.05
v 0.045155 -0.558177 0.05
v -0.112245 -0.548636 0.05
v -0.0900158 -0.552718 0.05
v -0.134291 -0.54366 0.05
v -0.280529 -0.484669 0.05
v -0.260744 -0.495593 0.05
v -0.318696 -0.46047 0.05
v -0.299857 -0.472955 0.05
v 0.177691 -0.531061 0.05
v 0.198974 -0.523459 0.05
v 0.134291 -0.54366 0.05
v 0.156118 -0.537799 0.05
v -0.177691 -0.531061 0.05
v -0.156118 -0.537799 0.05
v -0.240535 -0.50571 0.05
v -0.219934 -0.515004 0.05
v 0.260744 -0.495593 0.05
v 0.280529 -0.484669 0.05
v 0.240535 -0.50571 0.05
v -0.198974 -0.523459 0.05
v -0.337016 -0.447236 0.05
v 0.299857 -0.472955 0.05
v 0.219934 -0.515004 0.05
v 0.318696 -0.46047 0.05
v 0.337016 -0.447236 0.05
v 1.30626e-16 -0.56 -0.05
v -0.0225959 -0.559544 -0.05
v -0.0676405 -0.5559 -0.05
v -0.0900158 -0.552718 -0.05
v -0.045155 -0.558177 -0.05
v 0.045155 -0.558177 -0.05
v 0.0225959 -0.559544 -0.05
v 0.112245 -0.548636 -0.05
v 0.0900158 -0.552718 -0.05
v -0.112245 -0.548636 -0.05
v 0.0676405 -0.5559 -0.05
v 0.134291 -0.54366 -0.05
v -0.280529 -0.484669 -0.05
v -0.299857 -0.472955 -0.05
v -0.134291 -0.54366 -0.05
v -0.156118 -0.537799 -0.05
v -0.318696 -0.46047 -0.05
v -0.240535 -0.50571 -0.05
v -0.260744 -0.495593 -0.05
v -0.198974 -0.523459 -0.05
v -0.219934 -0.515004 -0.05
v 0.177691 -0.531061 -0.05
v 0.156118 -0.537799 -0.05
v -0.177691 -0.531061 -0.05
v 0.219934 -0.515004 -0.05
v 0.198974 -0.523459 -0.05
v 0.260744 -0.495593 -0.05
v 0.240535 -0.50571 -0.05
v 0.299857 -0.472955 -0.05
v 0.280529 -0.484669 -0.05
v 0.337016 -0.447236 -0.05
v 0.318696 -0.46047 -0.05
v -0.337016 -0.447236 -0.05
vn 0.601815 0.798636 0
vn 0.635608 0.772012 0
vn 0.668225 0.743959 0
vn 0.699605 0.714529 0
vn 0.729691 0.683777 0
vn 0.758425 0.65176 0
vn 0.785756 0.618536 0
vn 0.811633 0.584167 0
vn 0.836008 0.548717 0
vn 0.858835 0.512252 0
vn 0.880073 0.474839 0
vn 0.899682 0.436546 0
vn 0.917626 0.397446 0
vn 0.933871 0.35761 0
vn 0.948388 0.317112 0
vn 0.96115 0.276028 0
vn 0.972133 0.234432 0
vn 0.981316 0.192402 0
vn 0.988683 0.150017 0
vn 0.994221 0.107354 0
vn 0.997918 0.0644918 0
vn 0.999769 0.0215105 0
vn 0.999769 -0.0215105 0
vn 0.997918 -0.0644918 0
vn 0.994221 -0.107354 0
vn 0.988683 -0.150017 0
vn 0.981316 -0.192402 0
vn 0.972133 -0.234432 0
vn 0.96115 -0.276028 0
vn 0.948388 -0.317112 0
vn 0.933871 -0.35761 0
vn 0.917626 -0.397446 0
vn 0.899682 -0.436546 0
vn 0.880073 -0.474839 0
vn 0.858835 -0.512252 0
vn 0.836008 -0.548717 0
vn 0.811633 -0.584167 0
vn 0.785756 -0.618536 0
vn 0.758425 -0.65176 0
vn 0.729691 -0.683777 0
vn 0.699605 -0.714529 0
vn 0.668225 -0.743959 0
vn 0.635608 -0.772012 0
vn 0.601815 -0.798636 0
vn 0.798636 -0.601815 0
vn -0.601815 0.798636 0
vn -0.5691 0.822268 0
vn -0.535458 0.844562 0
vn -0.500944 0.865479 0
vn -0.465615 0.884988 0
vn -0.429526 0.903054 0
vn -0.392738 0.91965 0
vn -0.355311 0.934748 0
vn -0.317305 0.948324 0
vn -0.278782 0.960355 0
vn -0.239804 0.970821 0
vn -0.200437 0.979707 0
vn -0.160743 0.986996 0
vn -0.120787 0.992678 0
vn -0.0806338 0.996744 0
vn -0.0403498 0.999186 0
vn 3.82857e-16 1 0
vn 0.0403498 0.999186 0
vn 0.0806338 0.996744 0
vn 0.120787 0.992678 0
vn 0.160743 0.986996 0
vn 0.200437 0.979707 0
vn 0.239804 0.970821 0
vn 0.278782 0.960355 0
vn 0.317305 0.948324 0
vn 0.355311 0.934748 0
vn 0.392738 0.91965 0
vn 0.429526 0.903054 0
vn 0.465615 0.884988 0
vn 0.500944 0.865479 0
vn 0.535458 0.844562 0
vn 0.5691 0.822268 0
vn 0.601815 0.798636 0
vn -0.798636 -0.601815 0
vn -0.601815 -0.798636 0
vn -0.635608 -0.772012 0
vn -0.668225 -0.743959 0
vn -0.699605 -0.714529 0
vn -0.729691 -0.683777 0
vn -0.758425 -0.65176 0
vn -0.785756 -0.618536 0
vn -0.811633 -0.584167 0
vn -0.836008 -0.548717 0
vn -0.858835 -0.512252 0
vn -0.880073 -0.474839 0
vn -0.899682 -0.436546 0
vn -0.917626 -0.397446 0
vn -0.933871 -0.35761 0
vn -0.948388 -0.317112 0
vn -0.96115 -0.276028 0
vn -0.972133 -0.234432 0
vn -0.981316 -0.192402 0
vn -0.988683 -0.150017 0
vn -0.994221 -0.107354 0
vn -0.997918 -0.0644918 0
vn -0.999769 -0.0215105 0
vn -0.999769 0.0215105 0
vn -0.997918 0.0644918 0
vn -0.994221 0.107354 0
vn -0.988683 0.150017 0
vn -0.981316 0.192402 0
vn -0.972133 0.234432 0
vn -0.96115 0.276028 0
vn -0.948388 0.317112 0
vn -0.933871 0.35761 0
vn -0.917626 0.397446 0
vn -0.899682 0.436546 0
vn -0.880073 0.474839 0
vn -0.858835 0.512252 0
vn -0.836008 0.548717 0
vn -0.811633 0.584167 0
vn -0.785756 0.618536 0
vn -0.758425 0.65176 0
vn -0.729691 0.683777 0
vn -0.699605 0.714529 0
vn -0.668225 0.743959 0
vn -0.635608 0.772012 0
vn -0.601815 0.798636 0
vn 0 0 1
vn 0 0 -1
vn -0.798636 0.601815 0
vn 0.601815 -0.798636 0
vn 0.5691 -0.822268 0
vn 0.535458 -0.844562 0
vn 0.500944 -0.865479 0
vn 0.465615 -0.884988 0
vn 0.429526 -0.903054 0
vn 0.392738 -0.91965 0
vn 0.355311 -0.934748 0
vn 0.317305 -0.948324 0
vn 0.278782 -0.960355 0
vn 0.239804 -0.970821 0
vn 0.200437 -0.979707 0
vn 0.160743 -0.986996 0
vn 0.120787 -0.992678 0
vn 0.0806338 -0.996744 0
vn 0.0403498 -0.999186 0
vn 1.83697e-16 -1 0
vn -0.0403498 -0.999186 0
vn -0.0806338 -0.996744 0
vn -0.120787 -0.992678 0
vn -0.160743 -0.986996 0
vn -0.200437 -0.979707 0
vn -0.239804 -0.970821 0
vn -0.278782 -0.960355 0
vn -0.317305 -0.948324 0
vn -0.355311 -0.934748 0
vn -0.392738 -0.91965 0
vn -0.429526 -0.903054 0
vn -0.465615 -0.884988 0
vn -0.500944 -0.865479 0
vn -0.535458 -0.844562 0
vn -0.5691 -0.822268 0
vn -0.601815 -0.798636 0
vn 0.798636 0.601815 0
o mesh0
f 1//1 2//1 3//2
f 4//2 3//2 5//3
f 6//3 5//3 7//4
f 8//4 7//4 9//5
f 10//5 9//5 11//6
f 12//6 11//6 13//7
f 14//7 13//7 15//8
f 16//8 15//8 17//9
f 18//9 17//9 19//10
f 20//10 19//10 21//11
f 22//11 21//11 23//12
f 24//12 23//12 25//13
f 26//13 25//13 27//14
f 28//14 27//14 29//15
f 30//15 29//15 31//16
f 32//16 31//16 33//17
f 34//17 33//17 35//18
f 36//18 35//18 37//19
f 38//19 37//19 39//20
f 40//20 39//20 41//21
f 42//21 41//21 43//22
f 44//22 43//22 45//23
f 46//23 45//23 47//24
f 48//24 47//24 49//25
f 50//25 49//25 51//26
f 52//26 51//26 53//27
f 54//27 53//27 55//28
f 56//28 55//28 57//29
f 58//29 57//29 59//30
f 60//30 59//30 61//31
f 62//31 61//31 63//32
f 64//32 63//32 65//33
f 66//33 65//33 67//34
f 68//34 67//34 69//35
f 70//35 69//35 71//36
f 72//36 71//36 73//37
f 74//37 73//37 75//38
f 76//38 75//38 77//39
f 78//39 77//39 79//40
f 80//40 79//40 81//41
f 82//41 81//41 83//42
f 84//42 83//42 85//43
f 86//43 85//43 87//44
f 87//44 88//44 86//43
f 85//43 86//43 84//42
f 83//42 84//42 82//41
f 81//41 82//41 80//40
f 79//40 80//40 78//39
f 77//39 78//39 76//38
f 75//38 76//38 74//37
f 73//37 74//37 72//36
f 71//36 72//36 70//35
f 69//35 70//35 68//34
f 67//34 68//34 66//33
f 65//33 66//33 64//32
f 63//32 64//32 62//31
f 61//31 62//31 60//30
f 59//30 60//30 58//29
f 57//29 58//29 56//28
f 55//28 56//28 54//27
f 53//27 54//27 52//26
f 51//26 52//26 50//25
f 49//25 50//25 48//24
f 47//24 48//24 46//23
f 45//23 46//23 44//22
f 43//22 44//22 42//21
f 41//21 42//21 40//20
f 39//20 40//20 38//19
f 37//19 38//19 36//18
f 35//18 36//18 34//17
f 33//17 34//17 32//16
f 31//16 32//16 30//15
f 29//15 30//15 28//14
f 27//14 28//14 26//13
f 25//13 26//13 24//12
f 23//12 24//12 22//11
f 21//11 22//11 20//10
f 19//10 20//10 18//9
f 17//9 18//9 16//8
f 15//8 16//8 14//7
f 13//7 14//7 12//6
f 11//6 12//6 10//5
f 9//5 10//5 8//4
f 7//4 8//4 6//3
f 5//3 6//3 4//2
f 3//2 4//2 1//1
o mesh1
f 1//45 89//45 90//45
f 90//45 2//45 1//45
o mesh2
f 91//46 92//46 93//47
f 94//47 93//47 95//48
f 96//48 95//48 97//49
f 98//49 97//49 99//50
f 100//50 99//50 101//51
f 102//51 101//51 103//52
f 104//52 103//52 105//53
f 106//53 105//53 107//54
f 108//54 107//54 109//55
f 110//55 109//55 111//56
f 112//56 111//56 113//57
f 114//57 113//57 115//58
f 116//58 115//58 117//59
f 118//59 117//59 119//60
f 120//60 119//60 121//61
f 122//61 121//61 123//62
f 124//62 123//62 125//63
f 126//63 125//63 127//64
f 128//64 127//64 129//65
f 130//65 129//65 131//66
f 132//66 131//66 133//67
f 134//67 133//67 135//68
f 136//68 135//68 137//69
f 138//69 137//69 139//70
f 140//70 139//70 141//71
f 142//71 141//71 143//72
f 144//72 143//72 145//73
f 146//73 145//73 147//74
f 148//74 147//74 149//75
f 150//75 149//75 151//76
f 152//76 151//76 153//77
f 154//77 153//77 90//78
f 90//78 89//78 154//77
f 153//77 154//77 152//76
f 151//76 152//76 150//75
f 149//75 150//75 148//74
f 147//74 148//74 146//73
f 145//73 146//73 144//72
f 143//72 144//72 142//71
f 141//71 142//71 140//70
f 139//70 140//70 138//69
f 137//69 138//69 136//68
f 135//68 136//68 134//67
f 133//67 134//67 132//66
f 131//66 132//66 130//65
f 129//65 130//65 128//64
f 127//64 128//64 126//63
f 125//63 126//63 124//62
f 123//62 124//62 122//61
f 121//61 122//61 120//60
f 119//60 120//60 118//59
f 117//59 118//59 116//58
f 115//58 116//58 114//57
f 113//57 114//57 112//56
f 111//56 112//56 110//55
f 109//55 110//55 108//54
f 107//54 108//54 106//53
f 105//53 106//53 104//52
f 103//52 104//52 102//51
f 101//51 102//51 100//50
f 99//50 100//50 98//49
f 97//49 98//49 96//48
f 95//48 96//48 94//47
f 93//47 94//47 91//46
o mesh3
f 92//79 91//79 155//79
f 155//79 156//79 92//79
o mesh4
f 157//80 158//80 159//81
f 160//81 159//81 161//82
f 162//82 161//82 163//83
f 164//83 163//83 165//84
f 166//84 165//84 167//85
f 168//85 167//85 169//86
f 170//86 169//86 171//87
f 172//87 171//87 173//88
f 174//88 173//88 175//89
f 176//89 175//89 177//90
f 178//90 177//90 179//91
f 180//91 179//91 181//92
f 182//92 181//92 183//93
f 184//93 183//93 185//94
f 186//94 185//94 187//95
f 188//95 187//95 189//96
f 190//96 189//96 191//97
f 192//97 191//97 193//98
f 194//98 193//98 195//99
f 196//99 195//99 197//100
f 198//100 197//100 199//101
f 200//101 199//101 201//102
f 202//102 201//102 203//103
f 204//103 203//103 205//104
f 206//104 205//104 207//105
f 208//105 207//105 209//106
f 210//106 209//106 211//107
f 212//107 211//107 213//108
f 214//108 213//108 215//109
f 216//109 215//109 217//110
f 218//110 217//110 219//111
f 220//111 219//111 221//112
f 222//112 221//112 223//113
f 224//113 223//113 225//114
f 226//114 225//114 227//115
f 228//115 227//115 229//116
f 230//116 229//116 231//117
f 232//117 231//117 233//118
f 234//118 233//118 235//119
f 236//119 235//119 237//120
f 238//120 237//120 239//121
f 240//121 239//121 241//122
f 242//122 241//122 156//123
f 156//123 155//123 242//122
f 241//122 242//122 240//121
f 239//121 240//121 238//120
f 237//120 238//120 236//119
f 235//119 236//119 234//118
f 233//118 234//118 232//117
f 231//117 232//117 230//116
f 229//116 230//116 228//115
f 227//115 228//115 226//114
f 225//114 226//114 224//113
f 223//113 224//113 222//112
f 221//112 222//112 220//111
f 219//111 220//111 218//110
f 217//110 218//110 216//109
f 215//109 216//109 214//108
f 213//108 214//108 212//107
f 211//107 212//107 210//106
f 209//106 210//106 208//105
f 207//105 208//105 206//104
f 205//104 206//104 204//103
f 203//103 204//103 202//102
f 201//102 202//102 200//101
f 199//101 200//101 198//100
f 197//100 198//100 196//99
f 195//99 196//99 194//98
f 193//98 194//98 192//97
f 191//97 192//97 190//96
f 189//96 190//96 188//95
f 187//95 188//95 186//94
f 185//94 186//94 184//93
f 183//93 184//93 182//92
f 181//92 182//92 180//91
f 179//91 180//91 178//90
f 177//90 178//90 176//89
f 175//89 176//89 174//88
f 173//88 174//88 172//87
f 171//87 172//87 170//86
f 169//86 170//86 168//85
f 167//85 168//85 166//84
f 165//84 166//84 164//83
f 163//83 164//83 162//82
f 161//82 162//82 160//81
f 159//81 160//81 157//80
o mesh5
f 158//124 243//124 244//124
f 158//124 245//124 246//124
f 203//124 25//124 23//124
f 69//124 169//124 167//124
f 244//124 247//124 158//124
f 158//124 248//124 249//124
f 158//124 250//124 245//124
f 203//124 27//124 25//124
f 69//124 165//124 163//124
f 69//124 171//124 169//124
f 69//124 177//124 175//124
f 69//124 181//124 179//124
f 158//124 251//124 243//124
f 246//124 248//124 158//124
f 158//124 252//124 253//124
f 203//124 29//124 27//124
f 203//124 35//124 33//124
f 203//124 39//124 37//124
f 73//124 159//124 158//124
f 167//124 165//124 69//124
f 179//124 177//124 69//124
f 156//124 109//124 107//124
f 249//124 251//124 158//124
f 158//124 254//124 252//124
f 158//124 255//124 256//124
f 158//124 257//124 258//124
f 7//124 217//124 215//124
f 203//124 31//124 29//124
f 37//124 35//124 203//124
f 161//124 73//124 71//124
f 73//124 161//124 159//124
f 69//124 173//124 171//124
f 69//124 183//124 181//124
f 156//124 97//124 95//124
f 156//124 103//124 101//124
f 107//124 105//124 156//124
f 156//124 113//124 111//124
f 156//124 127//124 125//124
f 156//124 135//124 133//124
f 2//124 147//124 145//124
f 158//124 259//124 260//124
f 158//124 261//124 262//124
f 253//124 250//124 158//124
f 158//124 263//124 264//124
f 158//124 265//124 266//124
f 258//124 255//124 158//124
f 7//124 213//124 211//124
f 7//124 219//124 217//124
f 203//124 21//124 19//124
f 33//124 31//124 203//124
f 203//124 43//124 41//124
f 195//124 61//124 59//124
f 158//124 75//124 73//124
f 175//124 173//124 69//124
f 65//124 191//124 189//124
f 65//124 195//124 193//124
f 156//124 99//124 97//124
f 105//124 103//124 156//124
f 156//124 115//124 113//124
f 156//124 119//124 117//124
f 156//124 129//124 127//124
f 133//124 131//124 156//124
f 156//124 139//124 137//124
f 156//124 143//124 141//124
f 2//124 149//124 147//124
f 87//124 267//124 268//124
f 87//124 158//124 269//124
f 262//124 259//124 158//124
f 264//124 254//124 158//124
f 266//124 270//124 158//124
f 158//124 271//124 257//124
f 7//124 207//124 205//124
f 211//124 209//124 7//124
f 7//124 221//124 219//124
f 7//124 225//124 223//124
f 229//124 3//124 2//124
f 229//124 7//124 5//124
f 19//124 17//124 203//124
f 41//124 39//124 203//124
f 195//124 51//124 49//124
f 195//124 55//124 53//124
f 59//124 57//124 195//124
f 195//124 65//124 63//124
f 183//124 69//124 67//124
f 163//124 161//124 69//124
f 65//124 187//124 185//124
f 193//124 191//124 65//124
f 101//124 99//124 156//124
f 117//124 115//124 156//124
f 156//124 123//124 121//124
f 131//124 129//124 156//124
f 141//124 139//124 156//124
f 145//124 156//124 2//124
f 2//124 90//124 153//124
f 268//124 272//124 87//124
f 158//124 273//124 269//124
f 247//124 261//124 158//124
f 256//124 265//124 158//124
f 209//124 207//124 7//124
f 223//124 221//124 7//124
f 7//124 229//124 227//124
f 5//124 3//124 229//124
f 203//124 11//124 9//124
f 203//124 15//124 13//124
f 23//124 21//124 203//124
f 203//124 47//124 45//124
f 53//124 51//124 195//124
f 63//124 61//124 195//124
f 71//124 69//124 161//124
f 189//124 187//124 65//124
f 2//124 237//124 235//124
f 111//124 109//124 156//124
f 125//124 123//124 156//124
f 145//124 143//124 156//124
f 153//124 151//124 2//124
f 158//124 79//124 77//124
f 158//124 83//124 81//124
f 269//124 267//124 87//124
f 270//124 263//124 158//124
f 215//124 213//124 7//124
f 2//124 231//124 229//124
f 13//124 11//124 203//124
f 45//124 43//124 203//124
f 57//124 55//124 195//124
f 185//124 183//124 65//124
f 47//124 199//124 197//124
f 47//124 203//124 201//124
f 235//124 233//124 2//124
f 2//124 241//124 239//124
f 121//124 119//124 156//124
f 151//124 149//124 2//124
f 81//124 79//124 158//124
f 158//124 87//124 85//124
f 260//124 273//124 158//124
f 227//124 225//124 7//124
f 17//124 15//124 203//124
f 67//124 65//124 183//124
f 201//124 199//124 47//124
f 239//124 237//124 2//124
f 137//124 135//124 156//124
f 85//124 83//124 158//124
f 272//124 274//124 87//124
f 9//124 7//124 203//124
f 197//124 195//124 47//124
f 2//124 156//124 241//124
f 95//124 93//124 156//124
f 274//124 275//124 87//124
f 49//124 47//124 195//124
f 93//124 92//124 156//124
f 205//124 203//124 7//124
f 77//124 75//124 158//124
f 233//124 231//124 2//124
o mesh6
f 226//125 28//125 30//125
f 226//125 26//125 28//125
f 70//125 178//125 180//125
f 157//125 276//125 277//125
f 226//125 36//125 38//125
f 226//125 32//125 34//125
f 226//125 24//125 26//125
f 70//125 176//125 178//125
f 157//125 278//125 279//125
f 277//125 280//125 157//125
f 157//125 281//125 282//125
f 157//125 283//125 284//125
f 34//125 36//125 226//125
f 226//125 22//125 24//125
f 70//125 174//125 176//125
f 279//125 285//125 157//125
f 282//125 276//125 157//125
f 284//125 286//125 157//125
f 226//125 62//125 64//125
f 226//125 58//125 60//125
f 226//125 40//125 42//125
f 30//125 32//125 226//125
f 226//125 18//125 20//125
f 180//125 182//125 70//125
f 70//125 166//125 168//125
f 280//125 278//125 157//125
f 157//125 287//125 283//125
f 60//125 62//125 226//125
f 226//125 52//125 54//125
f 226//125 48//125 50//125
f 38//125 40//125 226//125
f 226//125 16//125 18//125
f 70//125 214//125 216//125
f 70//125 210//125 212//125
f 70//125 204//125 206//125
f 70//125 200//125 202//125
f 70//125 172//125 174//125
f 168//125 170//125 70//125
f 74//125 76//125 157//125
f 157//125 288//125 289//125
f 157//125 290//125 291//125
f 286//125 281//125 157//125
f 155//125 106//125 108//125
f 155//125 94//125 96//125
f 226//125 56//125 58//125
f 50//125 52//125 226//125
f 226//125 44//125 46//125
f 20//125 22//125 226//125
f 226//125 12//125 14//125
f 226//125 8//125 10//125
f 216//125 218//125 70//125
f 70//125 208//125 210//125
f 202//125 204//125 70//125
f 70//125 192//125 194//125
f 70//125 188//125 190//125
f 170//125 172//125 70//125
f 70//125 162//125 164//125
f 157//125 160//125 74//125
f 162//125 70//125 72//125
f 289//125 292//125 157//125
f 157//125 293//125 294//125
f 157//125 295//125 296//125
f 285//125 290//125 157//125
f 157//125 297//125 298//125
f 1//125 155//125 146//125
f 155//125 132//125 134//125
f 155//125 124//125 126//125
f 155//125 110//125 112//125
f 155//125 104//125 106//125
f 155//125 100//125 102//125
f 96//125 98//125 155//125
f 226//125 66//125 68//125
f 54//125 56//125 226//125
f 42//125 44//125 226//125
f 10//125 12//125 226//125
f 230//125 4//125 6//125
f 230//125 232//125 1//125
f 70//125 222//125 224//125
f 218//125 220//125 70//125
f 206//125 208//125 70//125
f 70//125 196//125 198//125
f 190//125 192//125 70//125
f 70//125 184//125 186//125
f 164//125 166//125 70//125
f 72//125 74//125 162//125
f 294//125 288//125 157//125
f 157//125 299//125 295//125
f 298//125 287//125 157//125
f 157//125 300//125 301//125
f 88//125 302//125 303//125
f 88//125 304//125 305//125
f 88//125 306//125 307//125
f 146//125 148//125 1//125
f 155//125 140//125 142//125
f 155//125 136//125 138//125
f 155//125 130//125 132//125
f 126//125 128//125 155//125
f 155//125 116//125 118//125
f 112//125 114//125 155//125
f 102//125 104//125 155//125
f 155//125 91//125 94//125
f 64//125 66//125 226//125
f 14//125 16//125 226//125
f 1//125 4//125 230//125
f 8//125 226//125 228//125
f 220//125 222//125 70//125
f 198//125 200//125 70//125
f 186//125 188//125 70//125
f 160//125 162//125 74//125
f 296//125 293//125 157//125
f 301//125 297//125 157//125
f 303//125 157//125 88//125
f 307//125 304//125 88//125
f 157//125 84//125 86//125
f 157//125 80//125 82//125
f 1//125 152//125 154//125
f 155//125 144//125 146//125
f 138//125 140//125 155//125
f 128//125 130//125 155//125
f 155//125 120//125 122//125
f 114//125 116//125 155//125
f 98//125 100//125 155//125
f 46//125 48//125 226//125
f 228//125 230//125 8//125
f 212//125 214//125 70//125
f 182//125 184//125 70//125
f 291//125 299//125 157//125
f 305//125 302//125 88//125
f 82//125 84//125 157//125
f 157//125 76//125 78//125
f 1//125 150//125 152//125
f 142//125 144//125 155//125
f 122//125 124//125 155//125
f 108//125 110//125 155//125
f 1//125 238//125 240//125
f 1//125 234//125 236//125
f 6//125 8//125 230//125
f 194//125 196//125 70//125
f 303//125 300//125 157//125
f 78//125 80//125 157//125
f 148//125 150//125 1//125
f 118//125 120//125 155//125
f 240//125 242//125 1//125
f 1//125 232//125 234//125
f 224//125 226//125 70//125
f 86//125 88//125 157//125
f 134//125 136//125 155//125
f 236//125 238//125 1//125
f 292//125 308//125 157//125
f 242//125 155//125 1//125
f 154//125 89//125 1//125
f 68//125 70//125 226//125
o mesh7
f 157//126 308//126 271//126
f 271//126 158//126 157//126
o mesh8
f 306//127 275//127 274//128
f 307//128 274//128 272//129
f 304//129 272//129 268//130
f 305//130 268//130 267//131
f 302//131 267//131 269//132
f 303//132 269//132 273//133
f 300//133 273//133 260//134
f 301//134 260//134 259//135
f 297//135 259//135 262//136
f 298//136 262//136 261//137
f 287//137 261//137 247//138
f 283//138 247//138 244//139
f 284//139 244//139 243//140
f 286//140 243//140 251//141
f 281//141 251//141 249//142
f 282//142 249//142 248//143
f 276//143 248//143 246//144
f 277//144 246//144 245//145
f 280//145 245//145 250//146
f 278//146 250//146 253//147
f 279//147 253//147 252//148
f 285//148 252//148 254//149
f 290//149 254//149 264//150
f 291//150 264//150 263//151
f 299//151 263//151 270//152
f 295//152 270//152 266//153
f 296//153 266//153 265//154
f 293//154 265//154 256//155
f 294//155 256//155 255//156
f 288//156 255//156 258//157
f 289//157 258//157 257//158
f 292//158 257//158 271//159
f 271//159 308//159 292//158
f 257//158 292//158 289//157
f 258//157 289//157 288//156
f 255//156 288//156 294//155
f 256//155 294//155 293//154
f 265//154 293//154 296//153
f 266//153 296//153 295//152
f 270//152 295//152 299//151
f 263//151 299//151 291//150
f 264//150 291//150 290//149
f 254//149 290//149 285//148
f 252//148 285//148 279//147
f 253//147 279//147 278//146
f 250//146 278//146 280//145
f 245//145 280//145 277//144
f 246//144 277//144 276//143
f 248//143 276//143 282//142
f 249//142 282//142 281//141
f 251//141 281//141 286//140
f 243//140 286//140 284//139
f 244//139 284//139 283//138
f 247//138 283//138 287//137
f 261//137 287//137 298//136
f 262//136 298//136 297//135
f 259//135 297//135 301//134
f 260//134 301//134 300//133
f 273//133 300//133 303//132
f 269//132 303//132 302//131
f 267//131 302//131 305//130
f 268//130 305//130 304//129
f 272//129 304//129 307//128
f 274//128 307//128 306//127
o mesh9
f 275//160 306//160 88//160
f 88//160 87//160 275//160
